# xmcd CD database file
#
# Track frame offsets:
#	150
#	42627
#	82825
#	125165
#	169282
#	205727
#
# Disc length: 3529 seconds
#
# Revision: 0
# Processed by: cddbd v1.5.2PL0 Copyright (c) Steve Scherf et al.
# Submitted via: CDex 1.70beta2
#
DISCID=500dc706
DTITLE=Red Garland - Autumn Leaves - The Last Recording 2
DYEAR=1983
DGENRE=Jazz
TTITLE0=Autumn Leaves
TTITLE1=It's Impossible
TTITLE2=That's All
TTITLE3=I'm Going Home
TTITLE4=Cherokkee
TTITLE5=Will You Still Be Mine?
EXTD=YEAR: 1983
EXTT0=
EXTT1=
EXTT2=
EXTT3=
EXTT4=
EXTT5=
PLAYORDER=
